# xmcd CD database file
# Generated: Fri Mar 18 18:45:06 2005 by KSCD
# 
# Track frame offsets:
#       150
#       12335
#       22722
#       35765
#       45000
#       57522
#       68080
#       78440
#       90795
#       100517
#       110942
#       120722
#
# Disc length: 1752 seconds
#
# Revision: 6
# Processed by: cddbd v1.5.1PL0 Copyright (c) Steve Scherf et al.
# Submitted via: Kscd 1.3.3
#
DISCID=8706d60c
DTITLE=lennium Collection)Wills Bob - The Best Of Bob Wills (20th Century Mas
DTITLE=ters The Mil
DYEAR=2000
DGENRE=Country
TTITLE0=Keeper Of My Heart
TTITLE1=Bubbles In My Beer
TTITLE2=Faded Love
TTITLE3=Cadillac And A Model "A"
TTITLE4=New San Antonio Rose
TTITLE5=Lone Star Rag
TTITLE6=New Spanish Two-Step
TTITLE7=Bob's Breakdown
TTITLE8=Across The Alley From The Alamo
TTITLE9=Times Changes Everything
TTITLE10=Cherokee Maiden
TTITLE11=Milk Cow Blues
EXTD=YEAR: 2000
EXTT0=
EXTT1=
EXTT2=
EXTT3=
EXTT4=
EXTT5=
EXTT6=
EXTT7=
EXTT8=
EXTT9=
EXTT10=
EXTT11=
PLAYORDER=
